<svg width="42" height="42" viewBox="0 0 42 42" fill="none" xmlns="http://www.w3.org/2000/svg">
<path d="M21 0C25.1534 0 29.2135 1.23163 32.667 3.53914C36.1204 5.84665 38.812 9.1264 40.4015 12.9636C41.9909 16.8009 42.4068 21.0233 41.5965 25.0969C40.7862 29.1705 38.7861 32.9123 35.8492 35.8492C32.9123 38.7861 29.1705 40.7862 25.0969 41.5965C21.0233 42.4068 16.8009 41.9909 12.9636 40.4015C9.1264 38.812 5.84665 36.1204 3.53914 32.667C1.23163 29.2135 0 25.1534 0 21C0 15.4305 2.21249 10.089 6.15076 6.15076C10.089 2.21249 15.4305 0 21 0V0Z" fill="#1473E6"/>
<path d="M21 1C18.2996 1 15.6805 1.52866 13.2154 2.57129C10.8339 3.57856 8.69495 5.02078 6.85786 6.85786C5.02078 8.69495 3.57856 10.8339 2.57129 13.2154C1.52866 15.6805 1 18.2996 1 21C1 23.7004 1.52866 26.3195 2.57129 28.7846C3.57856 31.1661 5.02078 33.305 6.85786 35.1421C8.69495 36.9792 10.8339 38.4214 13.2154 39.4287C15.6805 40.4713 18.2996 41 21 41C23.7004 41 26.3195 40.4713 28.7846 39.4287C31.1661 38.4214 33.305 36.9792 35.1421 35.1421C36.9792 33.305 38.4214 31.1661 39.4287 28.7846C40.4713 26.3195 41 23.7004 41 21C41 18.2996 40.4713 15.6805 39.4287 13.2154C38.4214 10.8339 36.9792 8.69495 35.1421 6.85786C33.305 5.02078 31.1661 3.57856 28.7846 2.57129C26.3195 1.52866 23.7004 1 21 1ZM21 0C32.598 0 42 9.40202 42 21C42 32.598 32.598 42 21 42C9.40202 42 0 32.598 0 21C0 9.40202 9.40202 0 21 0Z" fill="white" fill-opacity="0.85"/>
<g opacity="0.85">
<path opacity="0.85" d="M17.1599 13.323H15.8079C15.6626 13.323 15.5232 13.3807 15.4205 13.4835C15.3177 13.5863 15.2599 13.7257 15.2599 13.871V28.128C15.2599 28.2733 15.3177 28.4127 15.4205 28.5155C15.5232 28.6183 15.6626 28.676 15.8079 28.676H17.1599C17.3525 28.6752 17.5415 28.6238 17.7079 28.527L29.8079 21.472C29.8903 21.4236 29.9586 21.3546 30.006 21.2717C30.0534 21.1888 30.0784 21.095 30.0784 20.9995C30.0784 20.904 30.0534 20.8102 30.006 20.7273C29.9586 20.6444 29.8903 20.5754 29.8079 20.527L17.7089 13.472C17.5422 13.3751 17.3528 13.3237 17.1599 13.323V13.323Z" fill="white"/>
</g>
</svg>
