<svg xmlns="http://www.w3.org/2000/svg" viewBox="0 0 25.67 28.56"><defs><style>.cls-1{fill:red}</style></defs><title>Asset 1</title><g id="Layer_2" data-name="Layer 2"><g id="Layer_1-2" data-name="Layer 1"><g id="Group_159076" data-name="Group 159076"><path id="Path_99624" d="M23.8,8.17l-11,19-11-19H23.8m.55-1.08h-23A.77.77,0,0,0,.66,8.24L12.18,28.18a.76.76,0,0,0,1,.28.83.83,0,0,0,.28-.28L25,8.24a.76.76,0,0,0-.28-1,.73.73,0,0,0-.38-.11Z" class="cls-1" data-name="Path 99624"/><path id="Path_99625" d="M12.83,0,0,22.23H25.67ZM9.71,8.58l.73,1.26L6.92,15.92,6.2,14.66ZM7.44,16.82,11,10.73l5.78,10h-7Z" class="cls-1" data-name="Path 99625"/></g></g></g></svg>